HIERARCHY
ROOT Hips
{
	OFFSET 0.000000 83.214638 0.000000
	CHANNELS 6 Xposition Yposition Zposition Xrotation Yrotation Zrotation
	JOINT Pelvis
	{
		OFFSET 0.000000 0.000000 0.000000
		CHANNELS 3 Xrotation Yrotation Zrotation
		JOINT LeftUpLeg
		{
			OFFSET 8.479700 -4.795502 -0.379100
			CHANNELS 3 Xrotation Yrotation Zrotation
			JOINT LeftLeg
			{
				OFFSET 0.024144 -32.555107 0.112900
				CHANNELS 3 Xrotation Yrotation Zrotation
				JOINT LeftFoot
				{
					OFFSET -0.024144 -32.638630 -3.012600
					CHANNELS 3 Xrotation Yrotation Zrotation
					JOINT LeftToeBase
					{
						OFFSET 0.970200 -13.225400 11.864200
						CHANNELS 3 Xrotation Yrotation Zrotation
						End Site
						{
							OFFSET 0.000000 12.319262 0.000000
						}
					}
					JOINT LFootTongue
					{
						OFFSET 1.142400 -1.059800 6.665200
						CHANNELS 3 Xrotation Yrotation Zrotation
						End Site
						{
							OFFSET 0.000000 12.319262 0.000000
						}
					}
				}
				JOINT LeftPantLeg
				{
					OFFSET 0.918482 -16.533964 -2.284700
					CHANNELS 3 Xrotation Yrotation Zrotation
					End Site
					{
						OFFSET 0.350399 24.744368 0.000000
					}
				}
			}
		}
		JOINT RightUpLeg
		{
			OFFSET -8.479700 -4.795502 -0.379100
			CHANNELS 3 Xrotation Yrotation Zrotation
			JOINT RightLeg
			{
				OFFSET -0.023144 -32.555092 0.112900
				CHANNELS 3 Xrotation Yrotation Zrotation
				JOINT RightFoot
				{
					OFFSET 0.023144 -32.638641 -3.012700
					CHANNELS 3 Xrotation Yrotation Zrotation
					JOINT RightToeBase
					{
						OFFSET -0.970200 -13.225400 11.864200
						CHANNELS 3 Xrotation Yrotation Zrotation
						End Site
						{
							OFFSET 0.000000 12.319244 0.000000
						}
					}
					JOINT RFootTongue
					{
						OFFSET -1.142200 -1.059800 6.665200
						CHANNELS 3 Xrotation Yrotation Zrotation
						End Site
						{
							OFFSET 0.000000 12.319243 0.000000
						}
					}
				}
				JOINT RightPantLeg
				{
					OFFSET -0.919482 -16.533978 -2.284800
					CHANNELS 3 Xrotation Yrotation Zrotation
					End Site
					{
						OFFSET -0.350400 24.744419 0.000000
					}
				}
			}
		}
	}
	JOINT Spine
	{
		OFFSET 0.000000 7.722000 1.166200
		CHANNELS 3 Xrotation Yrotation Zrotation
		JOINT Spine1
		{
			OFFSET 0.000000 12.024101 0.248800
			CHANNELS 3 Xrotation Yrotation Zrotation
			JOINT Spine2
			{
				OFFSET 0.000000 11.502998 -0.491200
				CHANNELS 3 Xrotation Yrotation Zrotation
				JOINT Neck
				{
					OFFSET 0.000000 18.430702 -3.123100
					CHANNELS 3 Xrotation Yrotation Zrotation
					JOINT Head
					{
						OFFSET 0.000000 9.051102 1.034000
						CHANNELS 3 Xrotation Yrotation Zrotation
						JOINT HairB
						{
							OFFSET 0.208400 24.786102 24.822300
							CHANNELS 3 Xrotation Yrotation Zrotation
							End Site
							{
								OFFSET 0.000000 32.263779 0.000000
							}
						}
						JOINT HairA
						{
							OFFSET -7.081100 24.428299 23.196600
							CHANNELS 3 Xrotation Yrotation Zrotation
							End Site
							{
								OFFSET 0.000000 32.263779 0.000000
							}
						}
						JOINT Hat
						{
							OFFSET 16.728800 15.048294 -15.439601
							CHANNELS 3 Xrotation Yrotation Zrotation
							End Site
							{
								OFFSET 0.000000 32.263779 0.000000
							}
						}
					}
				}
				JOINT LeftShoulder
				{
					OFFSET 6.197800 13.665199 -4.064700
					CHANNELS 3 Xrotation Yrotation Zrotation
					JOINT LeftArm
					{
						OFFSET 7.778100 -0.187103 -1.709300
						CHANNELS 3 Xrotation Yrotation Zrotation
						JOINT LeftForeArm
						{
							OFFSET 22.049376 0.000000 0.000000
							CHANNELS 3 Xrotation Yrotation Zrotation
							JOINT LeftHand
							{
								OFFSET 23.009392 0.000000 0.000000
								CHANNELS 3 Xrotation Yrotation Zrotation
								JOINT LeftHandThumb1
								{
									OFFSET 3.507191 -2.063065 3.133727
									CHANNELS 3 Xrotation Yrotation Zrotation
									JOINT LeftHandThumb2
									{
										OFFSET 3.101337 -1.790558 1.790558
										CHANNELS 3 Xrotation Yrotation Zrotation
										JOINT LeftHandThumb3
										{
											OFFSET 3.058640 -1.765907 1.765906
											CHANNELS 3 Xrotation Yrotation Zrotation
											End Site
											{
												OFFSET -0.415260 3.926476 -0.049563
											}
										}
									}
								}
								JOINT LeftHandIndex1
								{
									OFFSET 11.334419 -0.901459 3.706815
									CHANNELS 3 Xrotation Yrotation Zrotation
									JOINT LeftHandIndex2
									{
										OFFSET 3.283112 0.000000 0.000000
										CHANNELS 3 Xrotation Yrotation Zrotation
										JOINT LeftHandIndex3
										{
											OFFSET 3.323853 0.000000 0.000000
											CHANNELS 3 Xrotation Yrotation Zrotation
											End Site
											{
												OFFSET -1.135597 3.097809 0.402452
											}
										}
									}
								}
								JOINT LeftHandMiddle1
								{
									OFFSET 11.335861 0.000000 0.000000
									CHANNELS 3 Xrotation Yrotation Zrotation
									JOINT LeftHandMiddle2
									{
										OFFSET 3.410492 0.000000 0.000000
										CHANNELS 3 Xrotation Yrotation Zrotation
										JOINT LeftHandMiddle3
										{
											OFFSET 3.312172 0.000000 0.000000
											CHANNELS 3 Xrotation Yrotation Zrotation
											End Site
											{
												OFFSET -1.150200 3.080154 0.400270
											}
										}
									}
								}
								JOINT LeftHandRing1
								{
									OFFSET 11.514786 -0.013176 -3.003090
									CHANNELS 3 Xrotation Yrotation Zrotation
									JOINT LeftHandRing2
									{
										OFFSET 3.053307 0.000000 0.000000
										CHANNELS 3 Xrotation Yrotation Zrotation
										JOINT LeftHandRing3
										{
											OFFSET 3.295807 0.000000 0.000000
											CHANNELS 3 Xrotation Yrotation Zrotation
											End Site
											{
												OFFSET -1.281006 3.013344 0.375733
											}
										}
									}
								}
								JOINT LeftHandPinky1
								{
									OFFSET 10.518692 -0.960396 -5.730441
									CHANNELS 3 Xrotation Yrotation Zrotation
									JOINT LeftHandPinky2
									{
										OFFSET 2.861649 0.000000 0.000000
										CHANNELS 3 Xrotation Yrotation Zrotation
										JOINT LeftHandPinky3
										{
											OFFSET 2.863380 0.000000 0.000000
											CHANNELS 3 Xrotation Yrotation Zrotation
											End Site
											{
												OFFSET -0.843597 2.711159 0.369971
											}
										}
									}
								}
							}
							JOINT LSleeve
							{
								OFFSET 6.676277 -0.344902 -1.011730
								CHANNELS 3 Xrotation Yrotation Zrotation
								End Site
								{
									OFFSET 0.000000 14.885353 0.000000
								}
							}
						}
					}
				}
				JOINT RightShoulder
				{
					OFFSET -6.197800 13.665199 -4.064700
					CHANNELS 3 Xrotation Yrotation Zrotation
					JOINT RightArm
					{
						OFFSET -7.778100 -0.187103 -1.709300
						CHANNELS 3 Xrotation Yrotation Zrotation
						JOINT RightForeArm
						{
							OFFSET -22.049376 0.000000 0.000000
							CHANNELS 3 Xrotation Yrotation Zrotation
							JOINT RightHand
							{
								OFFSET -23.009392 0.000000 0.000000
								CHANNELS 3 Xrotation Yrotation Zrotation
								JOINT RightHandThumb1
								{
									OFFSET -3.507191 -2.063065 3.133727
									CHANNELS 3 Xrotation Yrotation Zrotation
									JOINT RightHandThumb2
									{
										OFFSET -3.101337 -1.790558 1.790558
										CHANNELS 3 Xrotation Yrotation Zrotation
										JOINT RightHandThumb3
										{
											OFFSET -3.058640 -1.765907 1.765906
											CHANNELS 3 Xrotation Yrotation Zrotation
											End Site
											{
												OFFSET 0.415260 3.926476 -0.049563
											}
										}
									}
								}
								JOINT RightHandIndex1
								{
									OFFSET -11.334419 -0.901459 3.706815
									CHANNELS 3 Xrotation Yrotation Zrotation
									JOINT RightHandIndex2
									{
										OFFSET -3.283112 0.000000 0.000000
										CHANNELS 3 Xrotation Yrotation Zrotation
										JOINT RightHandIndex3
										{
											OFFSET -3.323853 0.000000 0.000000
											CHANNELS 3 Xrotation Yrotation Zrotation
											End Site
											{
												OFFSET 1.135597 3.097809 0.402452
											}
										}
									}
								}
								JOINT RightHandMiddle1
								{
									OFFSET -11.335861 0.000000 0.000000
									CHANNELS 3 Xrotation Yrotation Zrotation
									JOINT RightHandMiddle2
									{
										OFFSET -3.410492 0.000000 0.000000
										CHANNELS 3 Xrotation Yrotation Zrotation
										JOINT RightHandMiddle3
										{
											OFFSET -3.312172 0.000000 0.000000
											CHANNELS 3 Xrotation Yrotation Zrotation
											End Site
											{
												OFFSET 1.150200 3.080154 0.400270
											}
										}
									}
								}
								JOINT RightHandRing1
								{
									OFFSET -11.514786 -0.013176 -3.003090
									CHANNELS 3 Xrotation Yrotation Zrotation
									JOINT RightHandRing2
									{
										OFFSET -3.053307 0.000000 0.000000
										CHANNELS 3 Xrotation Yrotation Zrotation
										JOINT RightHandRing3
										{
											OFFSET -3.295807 0.000000 0.000000
											CHANNELS 3 Xrotation Yrotation Zrotation
											End Site
											{
												OFFSET 1.281006 3.013344 0.375733
											}
										}
									}
								}
								JOINT RightHandPinky1
								{
									OFFSET -10.518692 -0.960396 -5.730441
									CHANNELS 3 Xrotation Yrotation Zrotation
									JOINT RightHandPinky2
									{
										OFFSET -2.861649 0.000000 0.000000
										CHANNELS 3 Xrotation Yrotation Zrotation
										JOINT RightHandPinky3
										{
											OFFSET -2.863380 0.000000 0.000000
											CHANNELS 3 Xrotation Yrotation Zrotation
											End Site
											{
												OFFSET 0.843597 2.711159 0.369971
											}
										}
									}
								}
							}
							JOINT RSleeve
							{
								OFFSET -6.676277 -0.344902 -1.011730
								CHANNELS 3 Xrotation Yrotation Zrotation
								End Site
								{
									OFFSET 0.000000 14.885353 0.000000
								}
							}
						}
					}
				}
				JOINT Backpack
				{
					OFFSET 0.000000 -2.471497 36.677502
					CHANNELS 3 Xrotation Yrotation Zrotation
					End Site
					{
						OFFSET 0.000000 20.427315 0.000000
					}
				}
				JOINT Hood
				{
					OFFSET 0.000000 18.754097 -10.431000
					CHANNELS 3 Xrotation Yrotation Zrotation
					JOINT Hood1
					{
						OFFSET 0.000000 -5.011002 -7.685901
						CHANNELS 3 Xrotation Yrotation Zrotation
						End Site
						{
							OFFSET 0.000000 9.175140 0.000000
						}
					}
				}
				JOINT LHoodieString
				{
					OFFSET 5.250500 16.397697 3.089900
					CHANNELS 3 Xrotation Yrotation Zrotation
					JOINT LHoodieString1
					{
						OFFSET 0.257700 -6.364304 3.694600
						CHANNELS 3 Xrotation Yrotation Zrotation
						JOINT LHoodieString2
						{
							OFFSET 0.000000 -9.643799 2.679100
							CHANNELS 3 Xrotation Yrotation Zrotation
							End Site
							{
								OFFSET 0.000000 10.009018 0.000000
							}
						}
					}
				}
				JOINT RHoodieString
				{
					OFFSET -5.250500 16.397697 3.089900
					CHANNELS 3 Xrotation Yrotation Zrotation
					JOINT RHoodieString1
					{
						OFFSET -0.257700 -6.364304 3.694600
						CHANNELS 3 Xrotation Yrotation Zrotation
						JOINT RHoodieString2
						{
							OFFSET 0.000000 -9.643799 2.679100
							CHANNELS 3 Xrotation Yrotation Zrotation
							End Site
							{
								OFFSET 0.000000 10.009018 0.000000
							}
						}
					}
				}
			}
			JOINT LBackpack_Strap
			{
				OFFSET 15.223200 -7.719803 -6.610900
				CHANNELS 3 Xrotation Yrotation Zrotation
				End Site
				{
					OFFSET 0.000000 16.040596 0.000000
				}
			}
			JOINT RBackpack_Strap
			{
				OFFSET -15.223000 -7.719803 -6.610900
				CHANNELS 3 Xrotation Yrotation Zrotation
				End Site
				{
					OFFSET 0.000000 16.040596 0.000000
				}
			}
		}
	}
	JOINT BoyFacialAnim_Joint
	{
		OFFSET 1.000000 -82.208099 -1.550900
		CHANNELS 3 Xrotation Yrotation Zrotation
		End Site
		{
			OFFSET 0.000000 30.012791 0.000000
		}
	}
}
MOTION
Frames: 4
Frame Time: 0.033333
1.318683 25.160873 43.198395 27.026169 4.955639 -4.743510 -0.000000 0.000000 -0.000000 -54.251431 -13.506969 54.982067 128.403622 15.576226 1.762088 -1.246354 17.611134 9.110618 -0.000001 0.000001 -0.000001 -0.000001 0.000001 -0.000000 -0.000002 0.000000 -0.000001 -55.365739 0.666985 -64.304346 127.353590 -13.001718 -1.810217 9.405067 -19.911765 -3.474303 -0.000001 -0.000000 -0.000000 -0.000001 -0.000000 -0.000000 0.000001 -0.000001 -0.000004 0.471316 -1.760071 2.658469 1.335636 -1.944170 1.331086 1.363178 -1.913163 1.342300 0.486146 0.546122 -0.880823 -29.636416 4.369401 -3.547146 0.000000 0.000000 -0.000000 0.000000 0.000000 -0.000000 0.000000 0.000000 -0.000000 -0.061755 8.340471 -11.026172 5.415171 -28.362810 -57.453755 -0.000008 -57.623608 -0.000012 16.306839 -11.832440 -0.780088 -1.536583 3.690581 6.136720 3.946776 7.971436 0.752865 0.000004 -0.000003 0.000000 0.000002 -0.000001 0.000007 -0.000002 0.000004 -0.000001 0.000000 -0.000000 -0.000002 0.000005 -0.001921 0.015980 0.000007 0.001918 -0.015992 -0.000000 -0.000001 0.000003 0.000002 -0.000007 -0.000017 0.000000 0.000009 0.000010 0.000001 0.000001 -0.000004 -0.018067 4.054261 0.511083 -0.018103 -4.054250 -0.511083 -0.000003 0.000004 -0.000001 0.000002 -0.000001 -0.000000 1.847385 5.969658 10.381051 -0.058001 5.843078 60.851965 -0.000003 54.601266 0.000007 -10.710046 3.059138 -26.246841 -1.859133 -3.578106 -6.602420 4.645042 -8.656782 -0.231288 -0.000001 -0.000001 -0.000000 0.000004 0.000003 -0.000009 0.000002 0.000006 0.000024 -0.000001 -0.000002 0.000003 0.000006 -0.000004 -0.000005 0.000006 0.000004 0.000006 -0.000000 -0.000002 0.000003 0.000008 0.000010 0.000009 -0.000000 -0.000010 0.000004 0.000001 -0.000001 0.000004 0.000006 0.000004 -0.000006 0.000000 -0.000009 0.000006 -0.000004 -0.000009 -0.000003 -0.000002 -0.000000 0.000001 -0.000001 0.000000 -0.000000 -0.000001 0.000000 -0.000000 -0.000001 0.000000 -0.000000 -0.000001 0.000000 -0.000000 -0.000001 0.000000 -0.000000 -0.000001 -0.000000 0.000000 -0.000001 0.000000 -0.000000 -0.000001 0.000000 -0.000000 -0.000001 -0.000000 0.000000 0.000002 -0.000000 0.000000 0.000002 -0.000000 0.000000 -0.000000 0.000000 -0.000000 
1.759030 26.012833 46.743252 31.338404 5.068514 -5.005171 -0.000002 -0.000000 0.000000 -53.831439 -9.403536 55.979100 123.266418 15.075395 1.623495 -0.811586 14.833014 7.343936 0.000001 0.000000 0.000000 0.000001 0.000000 0.000000 0.000001 0.000002 0.000001 -55.242218 -4.671087 -64.329570 121.136998 -14.124602 -1.754436 7.657066 -18.582027 -2.294634 -0.000001 -0.000000 -0.000000 -0.000001 -0.000000 -0.000000 0.000003 0.000000 -0.000001 0.061731 -1.764601 3.386092 0.412213 -1.613588 1.560981 0.439501 -1.595669 1.568228 0.522097 0.513672 -1.259414 -28.661181 4.734483 -5.084130 -0.000000 -0.000000 0.000000 -0.000000 -0.000000 0.000000 -0.000000 -0.000000 0.000000 -0.033000 8.508508 -11.747206 10.624295 -19.946096 -54.930304 -0.000010 -61.349490 -0.000007 15.221831 -11.667478 -4.595966 -1.536403 3.691377 6.136664 3.946775 7.971440 0.752867 -0.000001 0.000002 -0.000004 0.000001 -0.000001 0.000008 -0.000010 0.000004 -0.000006 0.000000 0.000002 -0.000005 0.000002 -0.001920 0.015980 0.000004 0.001924 -0.015994 0.000001 0.000000 0.000002 -0.000000 -0.000007 -0.000012 -0.000002 0.000009 0.000003 -0.000002 -0.000001 -0.000000 -0.018066 4.054260 0.511087 -0.018103 -4.054256 -0.511082 0.000000 -0.000001 0.000005 0.000002 0.000000 0.000001 1.715378 5.183069 10.278660 1.216604 -2.433015 60.879928 -0.000015 59.641301 0.000027 -9.387029 -0.364934 -22.965570 -1.810237 -3.593404 -6.524548 4.645042 -8.656781 -0.231291 0.000000 -0.000001 0.000002 -0.000001 0.000003 -0.000007 0.000003 0.000001 0.000021 -0.000001 -0.000002 -0.000000 0.000005 -0.000003 -0.000006 0.000005 0.000005 0.000011 0.000003 0.000001 -0.000004 0.000003 0.000007 0.000012 -0.000001 -0.000009 0.000001 0.000002 -0.000003 0.000003 0.000004 0.000002 -0.000001 -0.000001 -0.000006 0.000008 0.000001 -0.000002 -0.000005 0.000001 -0.000001 0.000001 0.000002 0.000000 0.000000 0.000002 0.000000 0.000000 0.000002 0.000000 0.000000 0.000002 0.000000 0.000000 0.000002 0.000000 0.000000 -0.000002 0.000000 -0.000000 0.000002 0.000000 0.000000 0.000002 0.000000 0.000000 -0.000002 0.000000 -0.000000 -0.000002 0.000000 -0.000000 -0.000002 0.000000 -0.000000 -0.000002 -0.000000 0.000000 
2.021158 26.828827 50.298195 35.366177 6.179319 -4.799962 0.000002 -0.000000 0.000000 -53.380623 -5.862987 54.556348 117.159396 14.137493 1.518830 -0.010074 13.943782 5.735604 0.000000 0.000000 -0.000001 0.000000 0.000000 -0.000001 -0.000001 -0.000002 -0.000001 -54.856555 -10.075188 -64.900294 114.364162 -14.367142 -1.703243 5.957526 -18.560768 -0.818739 -0.000002 0.000000 -0.000000 -0.000002 0.000000 -0.000000 -0.000000 -0.000000 -0.000000 -0.321087 -2.056167 3.843073 -0.460815 -1.895549 1.388116 -0.424612 -1.891452 1.394554 0.560715 0.629758 -1.425029 -27.112822 5.139352 -5.104261 0.000000 -0.000000 -0.000000 0.000000 -0.000000 -0.000000 0.000000 -0.000000 -0.000000 -0.013097 8.445630 -11.912138 14.122445 -11.221401 -51.886686 0.000011 -63.890395 -0.000023 16.516222 -11.333107 -9.206860 -1.547912 3.689823 6.155355 3.946777 7.971440 0.752863 -0.000001 -0.000002 -0.000000 0.000002 -0.000001 0.000002 -0.000004 0.000001 -0.000001 -0.000004 0.000002 -0.000005 0.000002 -0.001923 0.015986 0.000001 0.001918 -0.015995 0.000001 0.000001 -0.000001 0.000002 -0.000007 -0.000010 -0.000008 0.000008 0.000010 0.000003 -0.000001 -0.000001 -0.018066 4.054258 0.511081 -0.018106 -4.054256 -0.511089 -0.000000 -0.000001 0.000001 0.000002 0.000001 -0.000001 1.578402 4.563959 10.129999 1.410821 -8.526709 59.952511 0.000014 63.544924 -0.000028 -4.243921 -4.688997 -20.805055 -1.789473 -3.601727 -6.489623 4.645043 -8.656782 -0.231290 0.000002 0.000002 0.000001 -0.000001 0.000004 -0.000009 0.000004 0.000004 0.000022 -0.000002 0.000002 0.000005 0.000005 -0.000002 -0.000001 0.000001 0.000004 0.000002 0.000003 0.000000 -0.000006 0.000003 0.000008 0.000014 -0.000003 -0.000008 -0.000001 0.000001 -0.000001 0.000002 0.000006 0.000006 0.000002 -0.000002 -0.000005 0.000003 0.000001 0.000002 -0.000001 -0.000000 -0.000002 0.000001 0.000004 0.000000 -0.000000 0.000004 0.000000 -0.000000 0.000004 0.000000 -0.000000 0.000004 0.000000 -0.000000 0.000004 0.000000 -0.000000 0.000002 0.000000 0.000000 0.000004 0.000000 -0.000000 0.000004 0.000000 -0.000000 0.000002 0.000000 0.000000 0.000004 -0.000000 -0.000000 0.000004 -0.000000 -0.000000 0.000002 -0.000000 0.000000 
2.089926 27.287041 53.868179 37.656298 8.092505 -3.259543 0.000001 0.000000 -0.000000 -50.868329 -1.892659 51.551403 110.296558 12.588591 1.417308 0.600644 14.463457 4.583632 -0.000002 -0.000000 -0.000000 -0.000002 -0.000000 0.000000 0.000003 0.000001 -0.000001 -52.546049 -14.321078 -66.618059 107.491557 -13.492544 -1.615734 4.743129 -18.240160 0.656733 0.000002 0.000000 0.000000 0.000002 0.000000 0.000000 0.000001 -0.000002 0.000000 -0.353732 -2.537270 3.748241 -0.606751 -2.620104 0.690758 -0.556568 -2.620063 0.698195 0.438503 0.800126 -1.429748 -25.934126 5.720298 -4.722271 -0.000000 0.000000 0.000000 -0.000000 0.000000 0.000000 -0.000000 0.000000 0.000000 -0.008122 8.186677 -11.399498 14.690414 -3.872848 -47.686762 -0.000007 -65.308896 -0.000000 18.129909 -12.437430 -14.564622 -1.557037 3.686287 6.169411 3.946781 7.971440 0.752867 -0.000002 0.000001 0.000002 0.000002 -0.000002 0.000006 -0.000001 0.000001 -0.000007 0.000006 0.000002 -0.000005 0.000001 -0.001924 0.015982 0.000006 0.001920 -0.015991 0.000004 0.000001 -0.000001 0.000001 -0.000009 -0.000011 -0.000005 0.000009 0.000001 -0.000005 -0.000001 -0.000000 -0.018065 4.054254 0.511084 -0.018102 -4.054257 -0.511084 0.000004 -0.000001 0.000003 0.000001 0.000001 0.000001 1.466855 4.124332 9.958042 0.023998 -11.306681 56.864159 0.000043 66.480116 -0.000056 1.759335 -7.707302 -19.168583 -1.921620 -3.561606 -6.698719 4.645044 -8.656777 -0.231281 0.000000 -0.000002 -0.000002 0.000002 0.000002 -0.000012 0.000003 0.000002 0.000023 0.000000 -0.000002 0.000001 0.000005 -0.000006 -0.000007 0.000004 0.000006 0.000013 0.000001 0.000000 -0.000000 0.000006 0.000006 0.000015 -0.000003 -0.000008 -0.000003 -0.000003 0.000001 0.000001 0.000006 0.000001 0.000001 -0.000003 -0.000007 0.000003 0.000001 0.000001 -0.000001 0.000001 -0.000002 0.000002 0.000000 0.000000 -0.000000 0.000000 0.000000 -0.000000 0.000000 0.000000 -0.000000 0.000000 0.000000 -0.000000 0.000000 0.000000 -0.000000 -0.000001 0.000000 -0.000000 0.000000 0.000000 -0.000000 0.000000 0.000000 -0.000000 -0.000001 0.000000 -0.000000 0.000001 -0.000000 -0.000000 0.000001 -0.000000 -0.000000 0.000001 0.000000 -0.000000 
